/* XPM */
static char *_a4447f0ecd547878b89f3417fdaa50cGRGbc3qAvpUvCf2g[] = {
/* columns rows colors chars-per-pixel */
"64 64 6 1 ",
"  c None",
". c #FFFFFD",
"X c #FFFDFF",
"o c #FEFFFE",
"O c #FFFFFE",
"+ c white",
/* pixels */
"                                                                ",
"                                                                ",
"                                                                ",
"                                                                ",
"                                                                ",
"                                                                ",
"                                                                ",
"                                                                ",
"                                                                ",
"                                                                ",
"                                                                ",
"            +++                                  +++            ",
"           ++++                                 +++++           ",
"           +++++                                +++++           ",
"           +++++                                +++++           ",
"           +++++                                +++++           ",
"           +++++                                +++++           ",
"           +++++                                +++++           ",
"           +++++                                +++++           ",
"           ++++                                 +++++           ",
"            +++                                 ++++            ",
"                                             +++                ",
"                                            ++++                ",
"                                           +++++                ",
"                                           +++++                ",
"                                            +++                 ",
"                                             +                  ",
"                                                                ",
"                                                                ",
"                                                                ",
"                                                                ",
"                                                                ",
"                                                  +             ",
"                                                 ++++           ",
"                                                +++++           ",
"                                                 ++++           ",
"                                                 +++            ",
"                                                                ",
"                                                                ",
"                                                                ",
"                                                                ",
"                                                                ",
"                                                                ",
"                 +++                        +++                 ",
"                 ++++                      ++++                 ",
"                +++++                      +++++                ",
"                 ++++                      ++++                 ",
"                  +                          +                  ",
"                             ++++++                             ",
"                           ++++++++++                           ",
"                           ++++++++++                           ",
"                           ++++++++++                           ",
"                            ++++++++                            ",
"                                                                ",
"                                                                ",
"                                                                ",
"                                                                ",
"                                                                ",
"                                                                ",
"                                                                ",
"                                                                ",
"                                                                ",
"                                                                ",
"                                                                "
};
