/* XPM */
static char *_1e0ce7654c34d4db4ee61481436d792NDhveifZsFMBrZ58[] = {
/* columns rows colors chars-per-pixel */
"64 64 187 2 ",
"   c None",
".  c #3E3B65",
"X  c #3F3C65",
"o  c #3F3C66",
"O  c #403D66",
"+  c #413E67",
"@  c #403D68",
"#  c #413E69",
"$  c #423F6A",
"%  c #43406B",
"&  c #44416C",
"*  c #44416D",
"=  c #46436E",
"-  c #46436F",
";  c #484571",
":  c #494673",
">  c #4B4875",
",  c #4E4B77",
"<  c #4D4A78",
"1  c #4E4B78",
"2  c #4F4B78",
"3  c #4F4C79",
"4  c #504D7C",
"5  c #514E7C",
"6  c #514E7D",
"7  c #53507E",
"8  c #53507F",
"9  c #545180",
"0  c #555281",
"q  c #565382",
"w  c #575483",
"e  c #595686",
"r  c #5A5788",
"t  c #5B5888",
"y  c #5B5889",
"u  c #5C598A",
"i  c #5D5A8A",
"p  c #5D5A8B",
"a  c #5E5B8C",
"s  c #5F5B8C",
"d  c #675B86",
"f  c #605C8D",
"g  c #615C8D",
"h  c #605D8D",
"j  c #615D8D",
"k  c #615D8E",
"l  c #625D8E",
"z  c #615E8E",
"x  c #635E8E",
"c  c #625E8F",
"v  c #625F8F",
"b  c #645F8F",
"n  c #70628E",
"m  c #646090",
"M  c #666292",
"N  c #686191",
"B  c #696292",
"V  c #6A6392",
"C  c #6B6393",
"Z  c #6C6393",
"A  c #686494",
"S  c #696494",
"D  c #6B6796",
"F  c #6D6494",
"G  c #6F6595",
"H  c #6C6796",
"J  c #6E6998",
"K  c #706696",
"L  c #716796",
"P  c #736897",
"I  c #746998",
"U  c #776B99",
"Y  c #716C9A",
"T  c #746E9C",
"R  c #786B9A",
"E  c #7A6C9B",
"W  c #7A6D9B",
"Q  c #7D6F9D",
"!  c #7973A1",
"~  c #7F73A1",
"^  c #7E77A4",
"/  c #7E78A4",
"(  c #81709E",
")  c #82719F",
"_  c #82729F",
"`  c #8372A0",
"'  c #8572A0",
"]  c #8274A2",
"[  c #8674A2",
"{  c #8775A2",
"}  c #8876A3",
"|  c #8A76A4",
" . c #8A77A4",
".. c #8B77A4",
"X. c #8079A6",
"o. c #817AA6",
"O. c #817BA7",
"+. c #8C78A5",
"@. c #8C79A5",
"#. c #8D79A6",
"$. c #8E7AA6",
"%. c #837CA8",
"&. c #907CA8",
"*. c #927FAA",
"=. c #937FAB",
"-. c #8881AC",
";. c #9183AE",
":. c #9682AD",
">. c #9682AE",
",. c #9683AE",
"<. c #9783AE",
"1. c #8E86B0",
"2. c #9885B0",
"3. c #9986B1",
"4. c #9A86B1",
"5. c #9A87B1",
"6. c #9189B3",
"7. c #928AB3",
"8. c #938BB4",
"9. c #948BB5",
"0. c #948CB5",
"q. c #958CB6",
"w. c #988BB1",
"e. c #9B8BB4",
"r. c #9B8CB4",
"t. c #998EB7",
"y. c #9F8CB6",
"u. c #998FB8",
"i. c #9F8FB8",
"p. c #A08FB8",
"a. c #A28FB8",
"s. c #A290B9",
"d. c #A192BB",
"f. c #A293BB",
"g. c #A492BB",
"h. c #A592BB",
"j. c #A693BC",
"k. c #A096BD",
"l. c #A196BE",
"z. c #A694BC",
"x. c #A794BC",
"c. c #A895BD",
"v. c #A896BE",
"b. c #A599C0",
"n. c #A699C1",
"m. c #A79DC3",
"M. c #AA99C1",
"N. c #AB9AC1",
"B. c #AC9AC1",
"V. c #AC9AC2",
"C. c #A99DC3",
"Z. c #AA9CC3",
"A. c #AB9CC3",
"S. c #AD9CC3",
"D. c #A89DC4",
"F. c #AA9DC4",
"G. c #A99EC5",
"H. c #AA9FC5",
"J. c #AD9EC5",
"K. c #AD9FC5",
"L. c #B09DC4",
"P. c #B29FC6",
"I. c #AFA3C8",
"U. c #AFA3C9",
"Y. c #AFA4C9",
"T. c #B2A0C6",
"R. c #B3A0C7",
"E. c #B2A1C7",
"W. c #B3A1C7",
"Q. c #B0A3C9",
"!. c #B2A4C9",
"~. c #B1A5CB",
"^. c #B3A4CA",
"/. c #B1A6CB",
"(. c #B2A6CB",
"). c #B8A7CC",
"_. c #B8ABCF",
"`. c #B8ABD0",
"'. c #BFAED2",
"]. c #C1AFD3",
"[. c #C1B4D7",
"{. c #C3B4D7",
"}. c #C4B4D7",
"|. c #C8B6D9",
" X c #CBBDDF",
".X c #CCBEDF",
"XX c #D1C1E2",
/* pixels */
". . . . . . . . . . . . . . . . . . . . . . . . . . . . . . . . . . . . . . . . . . . . . . . . . . . . . . . . . . . . . . . . ",
". . . O . . . . . . . . . . . . . . . . . . . . . . . . . . . . . . . . . . . . . . . . . . . . . . . . . . . . . . . O . . . . ",
". . . . % & * % & & & & & % & & % & * % & & & & & % & & * $ * $ - $ - $ * * * * % & * % & & & & & % & & % & & & & & $ . . . . . ",
". O . . 8 y p p p y p y p p y p p y p p p y p y p p y p u u u u u u u u y y p p p y p p p y p y p p y p p y p p p y 8 . . O . . ",
". . $ 9 y a a a p h p h p s s s a a a a a a a a p p p s p s p h h p h p p s p h a a a a a a a a p p a a a a a a a a y 9 $ X . . ",
". * 4 p a a a a h p h p p s s s a a a a a a a a s s s p s p h p p h u h p p p p a a a a a a a a a a a a a a a a a a a p 4 * . . ",
". > a a a a a a p h p s p s p s a a a a a a a a s s p s p h p h p h h p h p h p a a a a a a a a a a a a a a a a a a a a a > . . ",
". > a a a a a a h p s p s p s p a a a a a a a a s s s p h p h p p p p h p h p h a a a a a a a a a a a a a a a a a a a a a > . . ",
". > p s p s s s p h p p h p h u a a a a a a a a a a a a a a a a h h p p a a a a a a a a a a a a s p s p p s s s a a p s p > . . ",
". < h p s s s s h p p u p h p h a a a a a a a a a a a a a a a a p p p h a a a a a a a a a a a a p s p p s p s s a a s s s > . . ",
". > p s p s p p 9 9 9 9 3 9 9 9 7 7 7 7 7 7 7 7 7 7 7 7 7 7 7 7 9 9 9 9 7 7 7 7 7 7 7 7 7 7 7 7 0 0 7 7 9 7 9 y a s s s p > . . ",
". > s p s p p e $ . . . . . . . . . . . . . . . . . . . . . . . . . . . . . . . . . . . . . . . . . . . . . * y p p s s s > . . ",
". > p p a a 9 $ . . . . . o . . . . . . . . . . . . . . . . . . . . . . . . . . . . . . . . . . . O X X X . . o q p p h p > . . ",
". > p p a 9 - O                                                 d M n n n n n n n n n n n n n n V V n n n n w.X - 9 h p s > . . ",
". > h p a < $ < e.5.                                                +.+.+.+.+.+.+.+.+.+.+.+.+.+.+.......+.4.t.< $ < p h p > . . ",
". < p h a < - c ~.J.>.                                                +.+.+.+.+.+.+.+.+.+.+.+.+.+.......,.J./.h - < s p s > . . ",
". > p h p < - p c m.'.                                                +.+.+.+.+.+.+.+.+.+.+.+.+.+.+.+.+.].C.c a * < p s p > . . ",
". > h p h < - h a Y u.].                                                =.+.+.+.+.+.+.+.+.+.+.+.+.+...}.u.Y a a - < s s s > . . ",
". > p h p < - p a a T l.Q.4.                                                +.+.+.+.+.+.+.+.+.+...w.W.k.T a a a - < s s p > . . ",
". > p p h < - h a a a A ^.N.4.                                                #.+.+.+.+.+.+.+.+.2.N.^.V a a a a - < s s s > . . ",
". > p h p < - p a a a a a U.).                                                | +.+.+.+.+.+.+.+.).U.a a a a a a - < p h p > . . ",
". : h p h < - h a a a a a J                                                 ~ #.+.+.+.+.+.+.+.+.+.J a a a a a a - < h p s < . . ",
". > p h p < - p a a a a a a L                                                 +.+.+.+.+.+.+.+.+.L p p a a a a a - < p h p > . . ",
". > h p h < - h a a a a a B E                                                 +.+.+.+.+.+.+.+.+.W B a a a a a a - < s p p > . . ",
". > h p p < - p p p a a c Q                                                 +.+.+.+.+.+.+.+.+.+.+.Q k a a a a a - < p h p > . . ",
". > h p h < - h h p p c                                                 ` | +.+.+.+.+.+.+.+.+.+.+.+.+.k a a a a - < h p p > . . ",
". > p p h < - h a a A !                                                 | +.+.+.+.+.+.+.+.+.+.+.+.+.| Q A a a a - < p h h > . . ",
". > p h p < - p a A E                                                 +.+.+.+.+.+.+.+.+.+.+.+.+.+.+.#.#.E B a a - < h p p > . . ",
". > p h p < - p Y                                                 ] +.+.+.+.+.+.+.+.+.+.+.+.+.+.+.+.+.+.#.#.J a - < h p p > . . ",
". > p h p 3 - c [.V.                                                +.+.+.+.+.+.+.+.+.+.+.+.+.+.+.+.+.+.#.V.[.c - < p p h > . . ",
". > p p h 3 - h ! G.P.                                                +.+.+.+.+.+.+.+.+.+.+.+.+.+.+.+.+.U.G.! h - < p h p > . . ",
". > h p p < - p a %.n.L.                                                &.+.+.+.+.+.+.+.+.+.+.+.+.+.+.L.D./ p p - < p h p > . . ",
". > p p p 3 * h p s / `.h.                                                =.+.+.+.+.+.+.+.+.+.+.+.+.g.`./ h p h - < p h p > . . ",
". : h h h 3 - p s s s D  Xv.                                                +.+.+.+.+.+.+.+.+.+.+.x..XD p p h p - < h p h > . . ",
". > p p u 3 - h p s s s T Y.T.                                                +.+.+.+.+.+.+.+.+.T.^.T c p h p s - < p h u > . . ",
". > h u h < - p s p s s s X.;.                                                +.+.+.+.+.+.+.+.+.+.+.p p s p s p - < h p h > . . ",
". > h p h < - h p s p h p s P                                                 +.+.+.+.+.+.+.+.+.J p f p p c p s - < p p p > . . ",
". > h p p < - p s p h p p c P                                                 +.+.+.+.+.+.+.+.+.P c p p p p s p - < h h h : . . ",
". : p p h < - p h p p h a R                                                 | +.+.+.+.+.+.+.+.+...W p p p s s s - < p p h > . . ",
". < p h p 3 - h p h p h R                                                 [ +.+.+.+.+.+.+.+.+.+.+.+.R c s s s s - < h p p > . . ",
". > p a a < * p a a b U                                                 +.+.+.+.+.+.+.+.+.+.+.+.+.+.+.I c a a a - < p p a : o . ",
". > p h a 9 - p p c P                                                 +.+.+.+.+.+.+.+.+.+.+.+.+.+.+.+.+.Y c a a - < h p a < . . ",
". > p p h 3 - p a U                                                 +.+.+.+.+.+.+.+.+.+.+.+.+.+.+.+.+.+.+.E a a - < p p p : . . ",
". > h p p 3 - a G.a.                                                +.+.+.+.+.+.+.+.+.+.+.+.+.+.+.+.+.+.| i.G.c - < p h h < . . ",
"o : a a p < - h 6.C.j.                                                +.+.+.+.+.+.+.+.+.+.+.+.+.+.+.+.+.b.n.6.h - > a a p : o . ",
"o < a p h < - p a 8.^.p.                                                +.+.+.+.+.+.+.+.+.+.+.+.+.+.+.y.~.9.p a - 9 a p p < . . ",
". : h p p 3 - h a a -.XX,.                                                +.+.+.+.+.+.+.+.+.+.+.....>.XX-.p p p - < h p p > . . ",
". < p p h < - p a a M X.}.s.                                                +.+.+.+.+.+.+.+.+.+.+.a.[.%.A p p p - < p p h > . . ",
". < p p p < - p p h a M 1.G.n.                                                +.+.+.+.+.+.+.+.+.c.J.1.c a a a a - < a a a > . . ",
". : p h h < - h p p a a p q.g.                                                +.+.+.+.+.+.+.+.+.g.q.a a a a a a - < a a a > . . ",
"o : p h h < - p h h p a a a J                                                 +.+.+.+.+.+.+.+.+.L a a a a a a a - < a a a > . . ",
". < p p p 3 - p p p p a a a L                                                 +.+.+.+.+.+.+.+.+.L a a a a a a a - < a a a > . . ",
". > p a a 9 - h a a a a a L                                                 ` +.+.+.+.+.+.+.+.+.#.L a a a a a a - < a a a > . . ",
". > p h p < - p a a a k J                                                 ` +.+.+.+.+.+.+.+.+.+.#...L a a a a a - < a a a > . . ",
". > p p p < - p a a c B                                                 | | +.+.+.+.+.+.+.+.+.+...#...F k a a a - < a a a > . . ",
". > h p p < - h a a F                                                 +...+.+.+.+.+.+.+.+.+.+.+.#...#...F a a a - < a a a > . . ",
"X > s s p 3 * p a L                                                 ` +.+.+.+.+.+.+.+.+.+.+.+.+.+.+.+.+...L a a - < a a a > . . ",
". > s p s 3 - c L                                                 ) +.+.+.+.+.+.+.+.+.+.+.+.+.+.+.+.+.+.+...L a - < a a a > . . ",
". o 3 y p 3 : 4 B                                                 ' +.+.+.+.+.+.+.+.+.+.+.+.+.+.+.+.+.+.+.+.) a - < a a w - . . ",
". X $ 9 a , > 4 L                                                 +.+.+.+.+.+.+.+.+.+.+.+.+.+.+.+.+.+.+.+.+.|.a - < a a * . . . ",
". . . 9 p 3 : 4 L                                                 +.+.+.+.+.+.+.+.+.+.+.+.+.+.+.+.+.+.+.+.+.|.a - < a a . . . . ",
". . . . y < : 4 L                                                 +.+.+.+.+.+.+.+.+.+.+.+.+.+.+.+.+.+.+.+.+.|.a - < a . . . . . ",
". . . . r < > 4 L                                                 +.+.+.+.+.+.+.+.+.+.+.+.+.+.+.+.+.+.+.+.+.|.a - < a . . . . . ",
". . X X r , > 4 L                                                 +.+.+.+.+.+.+.+.+.+.+.+.+.+.+.+.+.+.+.+...|.a - < a $ . . . . "
};
