/* XPM */
static char *c0a14589709a49feaf50e7bccc8c404aYWYIJnSAPadrWDgN[] = {
/* columns rows colors chars-per-pixel */
"64 64 231 2 ",
"   c None",
".  c #3E3B65",
"X  c #3F3C65",
"o  c #3F3C66",
"O  c #403C66",
"+  c #403D66",
"@  c #403C67",
"#  c #413E67",
"$  c #403D68",
"%  c #413E69",
"&  c #423F68",
"*  c #423F6A",
"=  c #43406B",
"-  c #44416C",
";  c #44416D",
":  c #46436E",
">  c #46436F",
",  c #49446E",
"<  c #484571",
"1  c #4B4570",
"2  c #494673",
"3  c #4D4671",
"4  c #4F4B73",
"5  c #4B4875",
"6  c #4E4B77",
"7  c #4D4A78",
"8  c #4E4B78",
"9  c #4F4B78",
"0  c #4F4C79",
"q  c #514974",
"w  c #524B75",
"e  c #544F77",
"r  c #544F78",
"t  c #504D7C",
"y  c #514E7C",
"u  c #514E7D",
"i  c #584F7A",
"p  c #555078",
"a  c #53507E",
"s  c #53507F",
"d  c #545180",
"f  c #555281",
"g  c #565382",
"h  c #575483",
"j  c #595686",
"k  c #5A5788",
"l  c #5B5888",
"z  c #5B5889",
"x  c #5C598A",
"c  c #5D5A8A",
"v  c #5D5A8B",
"b  c #5E5B8C",
"n  c #5F5B8C",
"m  c #605A81",
"M  c #665A86",
"N  c #675B86",
"B  c #605C8D",
"V  c #615C8D",
"C  c #605D8D",
"Z  c #615D8D",
"A  c #615D8E",
"S  c #625D8E",
"D  c #615E8E",
"F  c #635E8E",
"G  c #625E8F",
"H  c #625F8F",
"J  c #645F8F",
"K  c #6C5F8A",
"L  c #6E608C",
"P  c #70628E",
"I  c #646090",
"U  c #666292",
"Y  c #686191",
"T  c #696292",
"R  c #6A6392",
"E  c #6B6393",
"W  c #6C6393",
"Q  c #686494",
"!  c #696494",
"~  c #6B6796",
"^  c #6D6494",
"/  c #6F6595",
"(  c #6C6796",
")  c #6E6998",
"_  c #706696",
"`  c #716796",
"'  c #726B91",
"]  c #736897",
"[  c #776894",
"{  c #7A6A96",
"}  c #746998",
"|  c #776B99",
" . c #716C9A",
".. c #746E9C",
"X. c #786B9A",
"o. c #7A6C9B",
"O. c #7A6D9B",
"+. c #7D6F9D",
"@. c #7973A1",
"#. c #7F73A1",
"$. c #7E77A4",
"%. c #7E78A4",
"&. c #81709E",
"*. c #82719F",
"=. c #82729F",
"-. c #85729F",
";. c #85739F",
":. c #82799E",
">. c #8372A0",
",. c #8572A0",
"<. c #8274A2",
"1. c #8674A2",
"2. c #8775A2",
"3. c #8874A1",
"4. c #8976A2",
"5. c #8876A3",
"6. c #8A77A3",
"7. c #8A76A4",
"8. c #8A77A4",
"9. c #8B77A4",
"0. c #847AA0",
"q. c #8079A6",
"w. c #817AA6",
"e. c #817BA7",
"r. c #8C78A5",
"t. c #8C79A5",
"y. c #8D79A6",
"u. c #8E7AA6",
"i. c #8E7AA7",
"p. c #837CA8",
"a. c #907CA8",
"s. c #927FAA",
"d. c #937FAB",
"f. c #8E85A9",
"g. c #8F85AA",
"h. c #8881AC",
"j. c #9183AE",
"k. c #9682AD",
"l. c #9682AE",
"z. c #9683AE",
"x. c #9783AE",
"c. c #958AAF",
"v. c #968AAF",
"b. c #8E86B0",
"n. c #9885B0",
"m. c #9986B1",
"M. c #9A86B1",
"N. c #9A87B1",
"B. c #9189B3",
"V. c #928AB3",
"C. c #978DB1",
"Z. c #938BB4",
"A. c #948BB5",
"S. c #948CB5",
"D. c #958CB6",
"F. c #988BB1",
"G. c #9B8BB4",
"H. c #9D89B4",
"J. c #9B8CB4",
"K. c #998EB7",
"L. c #9F8CB6",
"P. c #998FB8",
"I. c #9F8FB8",
"U. c #9D92B6",
"Y. c #A08FB8",
"T. c #A28FB8",
"R. c #A290B9",
"E. c #A192BB",
"W. c #A293BB",
"Q. c #A492BB",
"!. c #A592BB",
"~. c #A693BC",
"^. c #A096BD",
"/. c #A196BE",
"(. c #A694BC",
"). c #A794BC",
"_. c #A695BC",
"`. c #A895BD",
"'. c #A896BE",
"]. c #A999BF",
"[. c #A599C0",
"{. c #A699C1",
"}. c #A79DC3",
"|. c #AA99C1",
" X c #AB9AC1",
".X c #AC9AC1",
"XX c #AC9AC2",
"oX c #A99DC3",
"OX c #AA9CC3",
"+X c #AB9CC3",
"@X c #AD9CC2",
"#X c #AD9CC3",
"$X c #A89DC4",
"%X c #AA9DC4",
"&X c #A99EC5",
"*X c #AA9FC5",
"=X c #AD9EC5",
"-X c #AD9FC5",
";X c #B09DC4",
":X c #B29FC6",
">X c #AFA3C5",
",X c #AFA3C8",
"<X c #AFA3C9",
"1X c #AFA4C9",
"2X c #B2A0C6",
"3X c #B3A0C7",
"4X c #B2A1C7",
"5X c #B3A1C7",
"6X c #B3A2C7",
"7X c #B0A3C9",
"8X c #B4A2C8",
"9X c #B2A4C9",
"0X c #B1A5CB",
"qX c #B3A4CA",
"wX c #B1A6CB",
"eX c #B2A6CB",
"rX c #B8A7CC",
"tX c #B8ABCF",
"yX c #BCABCF",
"uX c #B8ABD0",
"iX c #BFAED2",
"pX c #C1AFD3",
"aX c #C1B4D7",
"sX c #C3B4D7",
"dX c #C4B4D7",
"fX c #C5B4D7",
"gX c #C8B6D9",
"hX c #CBBDDF",
"jX c #CEBDDF",
"kX c #CCBEDF",
"lX c #D1C1E2",
/* pixels */
". . . . . . . . . . . . . . . . . . . . . . . . . . . . . . . . . . . . . . . . . . . . . . . . . . . . . . . . . . . . . . . . ",
". . . + . . . . . . . . . . . . . . . . . . . . . . . . . . . . . . . . . . . . . . . . . . . . . . . . . . . . . . . . . . . . ",
". . . . = - ; = - - - - - = - - = - ; = - - - - - = - - ; * ; * > * > * ; ; ; ; * ; ; ; ; * > * > * > * ; ; ; ; ; ; o . . . . . ",
". + . . s z v v v z v z v v z v v z v v v z v z v v z v x x x x x x x x z z v v x x x x x x x x x x x v x x x v x x d . . * . . ",
". . * d z b b b v C v C v n n n b b b b b b b b v v v n v n v C C v C v v n v C C v C v v n v n v v x C v C v v v v x d * . . . ",
". ; t v b b b b C v C v v n n n b b b b b b b b n n n v n v C v v C x C v v v v v C x C C v n v C v C v v v C v C C v x d * . . ",
". 5 b b b b b b v C v n v n v n b b b b b b b b n n v n v C v C v C C v C v C v C v C v v v v n v C v C C C v v v v x C v 5 . . ",
". 5 b b b b b b C v n v n v n v b b b b b b b b n n n v C v C v v v v C v C v C v C v C v C n v C v C v v v v C v C C v C 5 . . ",
". 5 v n v n n n v C v v C v C x b b b b b b b b b b b b b b b b C C v v n n n n n v n v n n v n b b b b b b b b v C C v v 2 o . ",
". 7 C v n n n n C v v x v C v C b b b b b b b b b b b b b b b b v v v C v B n n v n v n n v n v b b b B b b b b v v v v b 7 . . ",
". 5 v n v n v v d d d d 0 d d d a a a a a a a a a a a a a a a a d d d d u s s u a a a a a a a a u s u s t d d b C v C C v 2 . . ",
". 5 n v n v v j * . . . . . . . . . . . . . . . . . . . . . . . . . . . . . + . . . . o . . o o . + . . . . * j v v v v C 7 . . ",
". 5 v v b b d * . . . . . o . . . . . . . . . . . . . . . . . . . . . . . . . . . . o o o . o o . . . . . . . * h v b b v 2 o . ",
". 5 v v b d > +                     N P P P P P P P P P P P P P L U P W P P P P C.' 2 L L L P P P P P P P W P @ > d b v v 7 . . ",
". 5 C v b 7 * 7 G.N.                    r.r.r.r.r.r.r.r.r.r.r.r.9.r.r.r.r.r.r.r.gXf.w r.r.r.r.r.r.r.r.r.r.N.P.7 o d C v v 5 . . ",
". 7 v C b 7 > G 0X=Xl.                    r.r.r.r.r.r.r.r.r.r.r.9.r.r.r.r.r.r.r.gXf.w r.r.r.r.r.r.r.r.r.l.&X0Xb > 5 v v C 5 . . ",
". 5 v C v 7 > v G }.iX                    r.r.r.r.r.r.r.r.r.r.r.r.r.r.r.r.r.r.r.gXf.w r.r.r.r.r.r.r.r.r.iX,XC C > 5 C v v 5 . . ",
". 5 C v C 7 > C b  .P.pX                    s.r.r.r.r.r.r.r.r.r.r.r.r.r.r.r.r.r.gXf.w r.r.r.r.r.r.r.r.pXP.) x v > 0 v v C 2 . . ",
". 5 v C v 7 > v b b ../.8Xm.                    r.r.r.r.r.r.r.r.r.r.r.r.r.r.r.r.gXf.w r.r.r.r.r.r.m.3X/.@.x C v > 7 C C C 5 . . ",
". 5 v v C 7 > C b b b Q 0X|.m.                    r.r.r.r.r.r.r.r.r.r.r.r.r.r.r.gXf.w r.r.r.r.r.n.|.0X! v C v C > 7 v v v 5 . . ",
". 5 v C v 7 > v b b b b b <XrX                    r.r.r.r.r.r.r.r.r.r.r.r.r.r.r.gXf.w r.r.r.r.r.rX1Xv n v n C v > 7 C v v 7 . . ",
". 2 C v C 7 > C b b b b b )                     #.r.r.r.r.r.r.r.r.r.r.r.r.r.r.r.gXf.w r.r.r.r.r.r.) n v n v v v > 7 v v C 2 . . ",
". 5 v C v 7 > v b b b b b b `                     r.r.r.r.r.r.r.r.r.r.r.r.r.r.r.gXf.w r.r.r.r.r.] v n n v n v C > 7 v C v 7 . . ",
". 5 C v C 7 > C b b b b b T o.                    r.r.r.r.r.r.r.r.r.r.r.r.r.r.r.gXf.w r.r.r.r.r.O.Y n n n v n v > 7 v C v 2 . . ",
". 5 C v v 7 > v v v b b G +.                    r.r.r.r.r.r.r.r.r.r.r.r.r.r.r.r.gXf.w r.r.r.r.r.r.+.V b v C B v > 7 b b b 2 o . ",
". 5 C v C 7 > C C v v G                     >.9.r.r.r.r.r.r.r.r.r.r.r.r.r.r.r.r.gXf.w r.r.r.r.r.r.r.r.V v v v v > 7 b b b 7 . . ",
". 5 v v C 7 > C b b Q @.                    9.r.r.r.r.r.r.r.r.r.r.r.r.r.r.r.r.r.gXf.w 9.r.r.r.r.r.r.r.@.Q B v B > 7 v b v 2 . . ",
". 5 v C v 7 > v b Q o.                    r.9.r.r.r.r.r.r.r.r.r.r.r.r.r.r.r.r.r.gXf., K ;.r.r.r.r.r.r.r.o.Q v B > 7 b b C 7 . . ",
". 5 v C v 7 > v  .                    <.r.r.r.r.r.r.r.r.r.r.r.r.r.r.r.r.r.r.r.r.iXc.e o P ,.r.r.r.r.r.r.r.r.) B > 5 b b v 2 o . ",
". 5 v C v 0 > G aXXX                    r.r.r.r.r.r.r.r.r.r.r.r.r.r.r.r.r.r.r.r.r.3X>Xo @ K r.r.r.r.r.r.r.&XaXG > d b v v 7 . . ",
". 5 v v C 0 > C @.&X:X                    r.r.9.r.r.r.r.r.r.r.r.r.r.r.r.r.r.r.r.r.z._.>Xy , M r.r.r.r.r.:X&X@.v > 7 C v v 5 . . ",
". 5 C v v 7 > v b p.{.;X                    s.9.r.r.r.r.r.r.r.r.r.r.r.r.r.r.r.r.r.r.z.8Xm.m i r.r.r.r.;X$X%.v v > 7 v v C 5 . . ",
". 5 v C C 7 > v n v %.uX!.                    s.r.r.r.r.r.r.r.r.r.r.r.r.r.r.r.r.r.r.r.i.jX:.i r.r.r.!.uX%.C v C ; 7 C v v 7 . . ",
". 5 v v v 0 > v v n n ~ kX`.                    r.r.r.r.r.r.r.r.r.r.r.r.r.r.r.r.r.r.r.i.jX:.i r.r.`.kX( v C C x > 7 v v C 2 . . ",
". 5 C v v 0 > C n v n n ..1X3X                    r.r.r.r.r.r.r.r.r.r.r.r.r.r.r.r.r.r.i.jX:.i r.3X8X..B C v C v > 7 C C C 5 . . ",
". 5 v v C 7 > v v n n n n q.j.                    r.r.r.r.r.r.r.r.r.r.r.r.r.r.r.r.r.r.i.jX:.i r.r.r.b b v C v C > 7 v v v 2 . . ",
". 5 C v v 7 > v n v C v v n ]                     r.r.r.r.r.r.r.r.r.r.r.r.r.r.r.r.r.r.i.jX:.i r.( b n n n v C v > 7 C v v 7 . . ",
". 5 C v C 7 > C v C v C B B ]                     r.r.r.r.r.r.r.r.r.r.r.r.r.r.r.r.r.r.a.jX:.i r.} B n n v n v n > 7 v v C 2 . . ",
". 2 v v C 7 ; C v C C v b X.                    9.r.r.r.r.r.r.r.r.r.r.r.r.r.r.r.r.r.r.r.jX:.i r.r.O.v n n v n v > 7 v C v 7 . . ",
". 7 v C v 0 > v C v C C X.                    2.r.r.r.r.r.r.r.r.r.r.r.r.r.r.r.r.r.r.m.pX0.p p r.r.r.X.B v n v n > 7 v C v 2 . . ",
". 5 v b b 7 ; v n n U  .                    9.9.r.r.r.r.r.r.r.r.r.r.r.r.r.r.r.r.r.H.].C.q q L r.r.r.r.` G B B v > 7 b b b 2 o . ",
". 5 v C b d > v B B ]                     r.r.r.r.r.r.r.r.r.r.r.r.r.r.r.r.r.r.r.x.@XU.. , P r.r.r.r.r.r. .G v v > 7 b b b 7 . . ",
". 5 v v v 0 > v b }                     9.r.r.r.r.r.r.r.r.r.r.r.r.r.r.r.r.r.r.r.fXf.+ + { 6.r.r.r.r.r.r.r.X.B B > 7 v b v 2 . . ",
". 5 C v C 7 > G &XR.                    r.r.r.r.r.r.r.r.r.r.r.r.r.r.r.r.r.r.r.r.gXf.3 { 3.r.r.r.r.r.r.r.r.I.&XC > 7 b b C 7 . . ",
"o 2 v C v 7 > C B.oX_.                    r.r.r.r.r.r.r.r.r.r.r.r.r.r.r.r.r.r.r.gXf.w r.r.r.r.r.r.r.r.r.[.$Xb.B > 5 b b v 2 o . ",
". 7 v v v 0 > v n Z.8XL.                    r.r.r.r.r.r.r.r.r.r.r.r.r.r.r.r.r.r.gXf.w r.r.r.r.r.r.r.r.L.0XA.B v > d b v v 7 . . ",
". 7 C v v 0 > C n n h.lXn.                    r.r.r.r.r.r.r.r.r.r.r.r.r.r.r.r.r.gXf.w r.r.r.r.r.r.r.l.lXh.v v v > 7 C v v 5 . . ",
". 2 v v C 7 > v n n U q.sXR.                    r.r.r.r.r.r.r.r.r.r.r.r.r.r.r.r.gXf.w r.r.r.r.r.r.T.aXp.Q v v v > 7 v v C 5 . . ",
". 5 v C v 7 > v v C b U b.&X{.                    r.r.r.r.r.r.r.r.r.r.r.r.r.r.r.gXf.w r.r.r.r.r.~.=Xb.I b b b b > 7 b b b 5 . . ",
". 5 v v C 7 > C v v b b v D.E.                    r.r.r.r.r.r.r.r.r.r.r.r.r.r.r.gXf.w r.r.r.r.r.E.D.b b b b b b > 7 b b b 5 . . ",
"o 2 C v C 7 > v C C v b b B `                     r.r.r.r.r.r.r.r.r.r.r.r.r.r.r.gXf.w r.r.r.r.r.` b b b b b b b > 7 b b b 5 . . ",
". 7 b v v 0 > v v v v b b B `                     r.r.r.r.r.r.r.r.r.r.r.r.r.r.r.gXf.w r.r.r.r.r.` b b b b b b b > 7 b b b 5 . . ",
". 7 v b b d > C b b b B b `                     *.r.r.r.r.r.r.r.r.r.r.r.r.r.r.r.gXf.w r.r.r.r.r.r.` b b b b b b > 7 b b b 5 . . ",
". 2 v C v 7 > v b b b B (                     *.r.r.r.r.r.r.r.r.r.r.r.r.r.r.r.r.gXf.w r.r.r.r.r.r.r.^ B b b b b > 7 b b b 5 . . ",
". 5 v v v 7 > v b b B Q                     2.r.r.r.r.r.r.r.r.r.r.r.r.r.r.r.r.r.gXf.w r.r.r.r.r.r.r.r.^ V b b b > 7 b b b 5 . . ",
". 5 C v v 7 > C b b (                     r.9.r.r.r.r.r.r.r.r.r.r.r.r.r.r.r.r.r.gXf.w r.r.r.r.r.r.r.r.r.^ b b b > 7 b b b 5 . . ",
". 5 n n n 8 > n b _                     ,.r.r.r.r.r.r.r.r.r.r.r.r.r.r.r.r.r.r.r.gXf.w r.r.r.r.r.r.r.r.r.r._ b b > 7 b b b 5 . . ",
". 7 v n n 8 > n _                     *.r.r.r.r.r.r.r.r.r.r.r.r.r.r.r.r.r.r.r.r.gXf.w r.r.r.r.r.r.r.r.r.r.r._ b > 7 b b b 5 . . ",
". $ 8 z z 8 2 t W                     ,.r.r.r.r.r.r.r.r.r.r.r.r.r.r.r.r.r.r.r.r.gXf.w r.r.r.r.r.r.r.r.r.r.r.*.b > 7 b b h 2 . . ",
". . o g n 8 2 a _                     r.r.r.r.r.r.r.r.r.r.r.r.r.r.r.r.r.r.r.r.r.gXf.w 6.r.r.r.r.r.r.r.r.r.r.r.b > 7 b b * . . . ",
". . . d n 9 2 t _                     r.r.r.r.r.r.r.r.r.r.r.r.r.r.r.r.r.r.r.r.r.gXf.w r.r.r.r.r.r.r.r.r.r.r.r.b ; 7 b b @ . . . ",
". . . . k 9 2 t ]                     r.r.r.r.r.r.r.r.r.r.r.r.r.r.r.r.r.r.r.r.r.gXf.w r.r.r.r.r.r.r.r.r.r.r.r.b 2 7 b . . . . . ",
". . . . j 9 2 t _                     r.r.r.r.r.r.r.r.r.r.r.r.r.r.r.r.r.r.r.r.r.gXf.w r.r.r.r.r.r.r.r.r.r.r.r.b ; 7 b . . . . . ",
". . . $ l t 2 t ]                     r.r.r.r.r.r.r.r.r.r.r.r.r.r.r.r.r.r.r.r.r.gXf.w r.r.r.r.r.r.r.r.r.r.r.r.B ; 7 b * . . . . "
};
