/* XPM */
static char *_d05b81f951c428adec060859154e9583g4mcjoZklStkGys[] = {
/* columns rows colors chars-per-pixel */
"64 64 185 2 ",
"   c None",
".  c #3E3B65",
"X  c #3F3C65",
"o  c #3F3C66",
"O  c #403D66",
"+  c #413E67",
"@  c #403D68",
"#  c #413E69",
"$  c #423F6A",
"%  c #43406B",
"&  c #44416C",
"*  c #44416D",
"=  c #46436E",
"-  c #46436F",
";  c #484571",
":  c #494673",
">  c #4B4875",
",  c #4E4B77",
"<  c #4D4A78",
"1  c #4E4B78",
"2  c #4F4B78",
"3  c #4F4C79",
"4  c #504D7C",
"5  c #514E7C",
"6  c #514E7D",
"7  c #53507E",
"8  c #53507F",
"9  c #545180",
"0  c #555281",
"q  c #565382",
"w  c #575483",
"e  c #595686",
"r  c #5A5788",
"t  c #5B5888",
"y  c #5B5889",
"u  c #5C598A",
"i  c #5D5A8A",
"p  c #5D5A8B",
"a  c #5E5B8C",
"s  c #5F5B8C",
"d  c #675B86",
"f  c #605C8D",
"g  c #615C8D",
"h  c #605D8D",
"j  c #615D8D",
"k  c #615D8E",
"l  c #625D8E",
"z  c #615E8E",
"x  c #635E8E",
"c  c #625E8F",
"v  c #625F8F",
"b  c #645F8F",
"n  c #70628E",
"m  c #646090",
"M  c #666292",
"N  c #686191",
"B  c #696292",
"V  c #6A6392",
"C  c #6B6393",
"Z  c #6C6393",
"A  c #686494",
"S  c #696494",
"D  c #6B6796",
"F  c #6D6494",
"G  c #6F6595",
"H  c #6C6796",
"J  c #6E6998",
"K  c #706696",
"L  c #716796",
"P  c #736897",
"I  c #746998",
"U  c #776B99",
"Y  c #716C9A",
"T  c #746E9C",
"R  c #786B9A",
"E  c #7A6C9B",
"W  c #7A6D9B",
"Q  c #7D6F9D",
"!  c #7973A1",
"~  c #7F73A1",
"^  c #7E77A4",
"/  c #7E78A4",
"(  c #81709E",
")  c #82719F",
"_  c #82729F",
"`  c #8372A0",
"'  c #8572A0",
"]  c #8274A2",
"[  c #8674A2",
"{  c #8775A2",
"}  c #8876A3",
"|  c #8A76A4",
" . c #8A77A4",
".. c #8B77A4",
"X. c #8079A6",
"o. c #817AA6",
"O. c #817BA7",
"+. c #8C78A5",
"@. c #8C79A5",
"#. c #8D79A6",
"$. c #8E7AA6",
"%. c #837CA8",
"&. c #907CA8",
"*. c #927FAA",
"=. c #937FAB",
"-. c #8881AC",
";. c #9183AE",
":. c #9682AD",
">. c #9682AE",
",. c #9683AE",
"<. c #9783AE",
"1. c #8E86B0",
"2. c #9885B0",
"3. c #9986B1",
"4. c #9A86B1",
"5. c #9A87B1",
"6. c #9189B3",
"7. c #928AB3",
"8. c #938BB4",
"9. c #948BB5",
"0. c #948CB5",
"q. c #958CB6",
"w. c #9B8BB4",
"e. c #9B8CB4",
"r. c #998EB7",
"t. c #9F8CB6",
"y. c #998FB8",
"u. c #9F8FB8",
"i. c #A08FB8",
"p. c #A28FB8",
"a. c #A290B9",
"s. c #A192BB",
"d. c #A293BB",
"f. c #A492BB",
"g. c #A592BB",
"h. c #A693BC",
"j. c #A096BD",
"k. c #A196BE",
"l. c #A694BC",
"z. c #A794BC",
"x. c #A895BD",
"c. c #A896BE",
"v. c #A599C0",
"b. c #A699C1",
"n. c #A79DC3",
"m. c #AA99C1",
"M. c #AB9AC1",
"N. c #AC9AC1",
"B. c #AC9AC2",
"V. c #A99DC3",
"C. c #AA9CC3",
"Z. c #AB9CC3",
"A. c #AD9CC3",
"S. c #A89DC4",
"D. c #AA9DC4",
"F. c #A99EC5",
"G. c #AA9FC5",
"H. c #AD9EC5",
"J. c #AD9FC5",
"K. c #B09DC4",
"L. c #B29FC6",
"P. c #AFA3C8",
"I. c #AFA3C9",
"U. c #AFA4C9",
"Y. c #B2A0C6",
"T. c #B3A0C7",
"R. c #B2A1C7",
"E. c #B3A1C7",
"W. c #B0A3C9",
"Q. c #B2A4C9",
"!. c #B1A5CB",
"~. c #B3A4CA",
"^. c #B1A6CB",
"/. c #B2A6CB",
"(. c #B8A7CC",
"). c #B8ABCF",
"_. c #B8ABD0",
"`. c #BFAED2",
"'. c #C1AFD3",
"]. c #C1B4D7",
"[. c #C3B4D7",
"{. c #C4B4D7",
"}. c #CBBDDF",
"|. c #CCBEDF",
" X c #D1C1E2",
/* pixels */
". . . . . . . . . . . . . . . . . . . . . . . . . . . . . . . . . . . . . . . . . . . . . . . . . . . . . . . . . . . . . . . . ",
". . . O . . . . . . . . . . . . . . . . . . . . . . . . . . . . . . . . . . . . . . . . . . . . . . . . . . . . . . . o . . . . ",
". . . . % & * % & & & & & % & & % & * % & & & & & % & & * $ * $ - $ - $ * * * * * & * * & & & & & % & & * $ * $ - $ $ . . . . . ",
". O . . 8 y p p p y p y p p y p p y p p p y p y p p y p u u u u u u u u y y p p y p y p p y p y p p y p u u u u u u 0 . . @ . . ",
". . $ 9 y a a a p h p h p s s s a a a a a a a a p p p s p s p h h p h p p s p h a a a a a a a a p p p s p s p h h p u 0 $ . . . ",
". * 4 p a a a a h p h p p s s s a a a a a a a a s s s p s p h p p h u h p p p p a a a a a a a a s s s p s p h p p p p p 6 * . . ",
". > a a a a a a p h p s p s p s a a a a a a a a s s p s p h p h p h h p h p h p a a a a a a a a s s p s p h p h h p p h p > . . ",
". > a a a a a a h p s p s p s p a a a a a a a a s s s p h p h p p p p h p h p h a a a a a a a a s s s p h p h p p h s p p > . . ",
". > p s p s s s p h p p h p h u a a a a a a a a a a a a a a a a h h p p a a a a a a a a a a a a a a a a a a a a h p p p h > . . ",
". < h p s s s s h p p u p h p h a a a a a a a a a a a a a a a a p p p h a a a a a a a a a a a a a a a g a a a a p h h p p > . . ",
". > p s p s p p 9 9 9 9 3 9 9 9 7 7 7 7 7 7 7 7 7 7 7 7 7 7 7 7 9 9 9 9 7 7 4 9 7 7 7 7 7 7 7 7 6 0 6 6 0 4 0 p h h p h p > . . ",
". > s p s p p e $ . . . . . . . . . . . . . . . . . . . . . . . . . . . . o o . . . . . . . . . . . . . . O $ e u p h u h > . . ",
". > p p a a 9 $ . . . . . o . . . . . . . . . . . . . . . . . . . . . . . . . . . . . . . . . . . . . . O . . @ q p p p p > . . ",
". > p p a 9 - O                                                                   d n n n n n n n n n n n Z n O - 9 h h p > . . ",
". > h p a < $ < w.5.                                                                  +.+.+.+.+.+.+.+.+.#.5.q.< o 9 p p h > . . ",
". < p h a < - c !.H.>.                                                                  +.+.+.+.+.+.+.+.>.F.^.a - > h p p > . . ",
". > p h p < - p c n.`.                                                                  +.+.+.+.+.+.+.+.`.F.h p - < h p p > . . ",
". > h p h < - h a Y y.'.                                                                  =.+.+.+.+.+.'.y.J h h - < p p h : . . ",
". > p h p < - p a a T k.W.4.                                                                  +.+.4.K.k.T h h p - < h h h > . . ",
". > p p h < - h a a a A ~.M.4.                                                                  4.B.!.S p h p h - < p p p > . . ",
". > p h p < - p a a a a a I.(.                                                                  (.U.s p s p h p - < h p p < . . ",
". : h p h < - h a a a a a J                                                                   ~ +.J s s p s p h - < p p h : . . ",
". > p h p < - p a a a a a a L                                                                   K p s s s p s p - < p h p < . . ",
". > h p h < - h a a a a a B E                                                                   W M s s p s p s - < p h p : . . ",
". > h p p < - p p p a a c Q                                                                   +.+.Q c a a a a a - < a a a : o . ",
". > h p h < - h h p p c                                                                   ` | +.+.+.+.c a a a a - < a a a < . . ",
". > p p h < - h a a A !                                                                   | +.+.+.+.+.Q A a a a - < p a p : . . ",
". > p h p < - p a A E                                                                   +.+.+.+.+.+.+.+.E B a a - < a a h < . . ",
". > p h p < - p Y                                                                   ] | +.+.+.+.+.+.+.+.+.+.J a - > a a p : o . ",
". > p h p 3 - c ].B.                                                                  &.+.+.+.+.+.+.+.+.+.F.].m - 9 a p p < . . ",
". > p p h 3 - h ! F.L.                                                                  +.+.+.+.+.#.+.+.L.F.! p - < h p p > . . ",
". > h p p < - p a %.b.K.                                                                  &.+.+.+.#.#.B.S./ p p - < p p h > . . ",
". > p h p < - h s p / _.h.                                                                  :.+.+.+.d.).^ a a a * < a a a > . . ",
". > p p h < - p p s s D }.c.                                                                  +.+.z.|.H a a a a ; < a a a > . . ",
". > h p p 3 - h s p s s T P.Y.                                                                  K.W.T j a a a a * < a a a > . . ",
". > p h p < - p p s s s s X.;.                                                                  +.+.a a a a a a ; < a a a > . . ",
". > h p h < - h s p h p a a K                                                                   P s a a a a a a * < a a a > . . ",
". > h p p < - p p s p h a j U                                                                   Y j a p a a a a ; < a a a > . . ",
". > p p h < - h p h h p a R                                                                   } +.R p g a a a a * < a a a > . . ",
". > p h p < - p h p h h R                                                                   [ +.+.+.R j a a a a ; < a a a > . . ",
". > p h p < * p s s m Y                                                                   +.+.+.+.+.+.U m p s p * < a a a > . . ",
". > p h p 9 - p s j P                                                                   +.+.+.+.+.+.+.+.Y m p s ; < a a a > . . ",
". > p p p 3 - p p U                                                                   | +.+.+.+.+.+.+.+.| U y s * < a a a > . . ",
". > h p h < - c Z.d.                                                                  +.+.+.+.+.+.+.+.+.+.t.P.j ; < a a a > . . ",
"o : p h p < - h 7.Z.d.                                                                  +.+.+.+.+.+.+.+.h.Z.7.j * < a a a > . . ",
". < p p p 3 - p s 8.~.t.                                                                  +.+.+.+.+.+.t.~.9.p s ; < a a a > . . ",
". < h p p 3 - h s s -. X<.                                                                  +.+.+.+.:. X-.a a a * < a a a > . . ",
". : p p h < - p s p M X.[.d.                                                                  +.+.d.{./ M a a a ; < a a a > . . ",
". > p h p < - p p h a M 1.F.b.                                                                  h.H.1.M a a a a * < a a a > . . ",
". > p p h < - h p p a a p q.k.                                                                  d.9.a p a a a a ; < a a a > . . ",
"o : h p h < - p h h p a a a L                                                                   K a a a a a a a * < a a a > . . ",
". < a p p 3 - p p p p a a a L                                                                   P a a a a a a a ; < a a a > . . ",
". < p a a 9 - h a a a a a L                                                                   ) +.K p f p p a a * < a a a > . . ",
". : p h p < - p a a a g K                                                                   ) +.+.+.H j p g a a ; < a a a > . . ",
". > p p p < - p a a g B                                                                   [ +.+.+.+.+.C j a a a * < a a a > . . ",
". > h p p < - h a a H                                                                   +.| +.+.+.+.+.+.F a a a ; < a a a > . . ",
". > s s a 3 - s a K                                                                   ' +.+.+.+.+.+.+.+.+.K a a * < a a a > . . ",
". > s s a 3 - s K                                                                   ) +.+.+.+.+.+.+.+.+.+.+.K a ; < a a a > . . ",
". o 3 y p < : 4 F                                                                   ' +.+.+.+.+.+.+.+.+.+.+.( a * < a p w ; . . ",
". o o 9 a 3 : 7 K                                                                   +.+.+.+.+.+.+.+.+.+.+.+.+.a ; < a a * . . . ",
". . . 9 s 3 ; 4 K                                                                   +.+.+.+.+.+.+.+.+.+.+.+.+.a * < a p O . . . ",
". . . . e 3 : 4 P                                                                   +.+.+.+.+.+.+.+.+.+.+.+.+.a ; < a . . . . . ",
". . . . r , : 4 K                                                                   +.+.+.+.+.+.+.+.+.+.+.+.+.a * < a O . . . . ",
". . o o y 3 : 4 P                                                                   +.+.+.+.+.+.+.+.+.+.+.+.+.a ; < a O . . . . "
};
