/* XPM */
static char *_a9eab44d1544276dc6c1e0a88b0de0cSKJM6vOxU83JL1ue[] = {
/* columns rows colors chars-per-pixel */
"64 64 235 2 ",
"   c #3E3B65",
".  c #403D66",
"X  c #423F6A",
"o  c #44416C",
"O  c #545180",
"+  c #5C598A",
"@  c #5B5889",
"#  c #5E5B8C",
"$  c #44416D",
"%  c #504D7C",
"&  c #5D5A8B",
"*  c #514E7C",
"=  c #4B4875",
"-  c #555281",
";  c #53507E",
":  c #5D5A8A",
">  c #595686",
",  c #43406B",
"<  c #565382",
"1  c #413E69",
"2  c #53507F",
"3  c #46436E",
"4  c #3F3C66",
"5  c #675B86",
"6  c #70628E",
"7  c #988BB1",
"8  c #726B91",
"9  c #4B4570",
"0  c #675B87",
"q  c #4E4B78",
"w  c #4E4B77",
"e  c #9B8BB4",
"r  c #9A87B1",
"t  c #8C78A5",
"y  c #C8B6D9",
"u  c #8E85A9",
"i  c #524B75",
"p  c #9B8CB4",
"a  c #4F4B78",
"s  c #4D4A78",
"d  c #46436F",
"f  c #615E8E",
"g  c #B1A6CB",
"h  c #AD9CC3",
"j  c #9682AE",
"k  c #9682AD",
"l  c #B2A6CB",
"z  c #625E8F",
"x  c #A79DC3",
"c  c #BFAED2",
"v  c #A89DC4",
"b  c #716C9A",
"n  c #998EB7",
"m  c #C1AFD3",
"M  c #927FAA",
"N  c #998FB8",
"B  c #746E9C",
"V  c #A196BE",
"C  c #B2A1C7",
"Z  c #9A86B1",
"A  c #9986B1",
"S  c #A096BD",
"D  c #686494",
"F  c #B1A5CB",
"G  c #AB9AC1",
"H  c #9885B0",
"J  c #AA99C1",
"K  c #696494",
"L  c #AFA3C9",
"P  c #B8A7CC",
"I  c #AFA4C9",
"U  c #6E6998",
"Y  c #7F73A1",
"T  c #7F74A1",
"R  c #716796",
"E  c #686191",
"W  c #7A6C9B",
"Q  c #7A6D9B",
"!  c #625D8E",
"~  c #7D6F9D",
"^  c #82719F",
"/  c #8A76A4",
"(  c #696292",
")  c #49446E",
"_  c #6C5F8A",
"`  c #85729F",
"'  c #8274A2",
"]  c #BCABCF",
"[  c #968AAF",
"{  c #544F77",
"}  c #403C66",
"|  c #85739F",
" . c #C1B4D7",
".. c #AC9AC2",
"X. c #8E7AA6",
"o. c #B3A2C7",
"O. c #AFA3C5",
"+. c #403C67",
"@. c #AC9AC1",
"#. c #625F8F",
"$. c #5F5B8C",
"%. c #7973A1",
"&. c #A99DC3",
"*. c #B3A1C7",
"=. c #9683AE",
"-. c #A695BC",
";. c #544F78",
":. c #665A86",
">. c #B3A0C7",
",. c #AA9DC4",
"<. c #837CA8",
"1. c #A599C0",
"2. c #B09DC4",
"3. c #907CA8",
"4. c #B4A2C8",
"5. c #958AAF",
"6. c #605A81",
"7. c #584F7A",
"8. c #A699C1",
"9. c #7E77A4",
"0. c #B8ABD0",
"q. c #A592BB",
"w. c #937FAB",
"e. c #8E7AA7",
"r. c #CEBDDF",
"t. c #82799E",
"y. c #A492BB",
"u. c #B8ABCF",
"i. c #7E78A4",
"p. c #6B6796",
"a. c #CBBDDF",
"s. c #A896BE",
"d. c #8D79A6",
"f. c #A895BD",
"g. c #CCBEDF",
"h. c #6C6796",
"j. c #605D8D",
"k. c #AFA3C8",
"l. c #B2A0C6",
"z. c #B29FC6",
"x. c #B0A3C9",
"c. c #817BA7",
"v. c #9183AE",
"b. c #9083AE",
"n. c #615D8D",
"m. c #746998",
"M. c #786B9A",
"N. c #8876A3",
"B. c #8674A2",
"V. c #847AA0",
"C. c #555078",
"Z. c #645F8F",
"A. c #9D89B4",
"S. c #A999BF",
"D. c #978DB1",
"F. c #4F4B73",
"G. c #514974",
"H. c #6E608C",
"J. c #8976A3",
"K. c #635E8E",
"L. c #736897",
"P. c #9783AE",
"I. c #AD9CC2",
"U. c #9D92B6",
"Y. c #776B99",
"T. c #8A77A4",
"R. c #C5B4D7",
"E. c #8F85AA",
"W. c #423F68",
"Q. c #7A6A96",
"!. c #8A77A3",
"~. c #615D8E",
"^. c #A99EC5",
"/. c #A08FB8",
"(. c #4D4671",
"). c #776894",
"_. c #8874A1",
"`. c #9F8FB8",
"'. c #AA9FC5",
"]. c #605C8D",
"[. c #9189B3",
"{. c #AA9CC3",
"}. c #A694BC",
"|. c #A693BC",
" X c #AB9CC3",
".X c #928AB3",
"XX c #938BB4",
"oX c #B3A4CA",
"OX c #9F8CB6",
"+X c #B2A4C9",
"@X c #948BB5",
"#X c #8881AC",
"$X c #D1C1E2",
"%X c #8C79A5",
"&X c #666292",
"*X c #8079A6",
"=X c #C3B4D7",
"-X c #A290B9",
";X c #A28FB8",
":X c #C4B4D7",
">X c #817AA6",
",X c #646090",
"<X c #8E86B0",
"1X c #AD9EC5",
"2X c #A794BC",
"3X c #AD9FC5",
"4X c #948CB5",
"5X c #A293BB",
"6X c #A192BB",
"7X c #958CB6",
"8X c #82729F",
"9X c #6F6595",
"0X c #8272A0",
"qX c #6A6392",
"wX c #8775A2",
"eX c #6B6393",
"rX c #615C8D",
"tX c #6D6494",
"yX c #8B77A4",
"uX c #8372A0",
"iX c #706696",
"pX c #403D68",
"aX c #4F4C79",
"sX c #5B5888",
"dX c #494673",
"fX c #514E7D",
"gX c #6C6393",
"hX c #8572A0",
"jX c #81709E",
"kX c #575483",
"lX c #484571",
"zX c #8976A2",
"xX c #5A5788",
"cX c #3F3C65",
"vX c #413E67",
/* pixels */
"                                                                                                                                ",
"      .                                                                                                               .         ",
"        X o o o o o o o o o o o o o o o o o o o o o o o o o o o o o o o o o o o o o o o o o o o o o o o o o o o o o X           ",
"  .     O + + + + + + + + + + + + + + + + + + + + + + + + + + + + + + + + + + + + + + + + + + + + + + + + + + + + + O     .     ",
"    X O @ # # # # # # # # # # # # # # # # # # # # # # # # # # # # # # # # # # # # # # # # # # # # # # # # # # # # # @ O X       ",
"  $ % & # # # # # # # # # # # # # # # # # # # # # # # # # # # # # # # # # # # # # # # # # # # # # # # # # # # # # # # & * $     ",
"  = # # # # # # # # # # # # # # # # # # # # # # # # # # # # # # # # # # # # # # # # # # # # # # # # # # # # # # # # # # # =     ",
"  = # # # # # # # # # # # # # # # # # # # # # # # # # # # # # # # # # # # # # # # # # # # # # # # # # # # # # # # # # # # =     ",
"  = # # # # # # # # # # # # # # # # # # # # # # # # # # # # # # # # # # # # # # # # # # # # # # # # # # # # # # # # # # # =     ",
"  = # # # # # # # # # # # # # # # # # # # # # # # # # # # # # # # # # # # # # # # # # # # # # # # # # # # # # # # # # # # =     ",
"  = # # # # # & - ; ; ; ; ; ; ; ; ; ; ; ; ; ; ; ; ; ; ; ; ; ; ; ; ; ; ; ; ; ; ; ; ; ; ; ; ; ; ; ; ; ; ; ; ; - & # # # # # =     ",
"  = # # # # : > ,                                                                                           , > : # # # # =     ",
"  = # # # # < 1                                                                                               1 < # # # # =     ",
"  = # # # 2 3 4 5 6 6 6 6 6 6 6 6 6 6 6 6 6 6 6 6 6 6 6 6 6 7 8 9 6 6 6 6 6 6 6 6 6 6 6 6 6 6 6 6 6 6 6 6 6 0 4 3 2 # # # =     ",
"  = # # # q 1 w e r t t t t t t t t t t t t t t t t t t t t y u i t t t t t t t t t t t t t t t t t t t t r p a 1 s # # # =     ",
"  = # # # q d f g h j t t t t t t t t t t t t t t t t t t t y u i t t t t t t t t t t t t t t t t t t t k h l z d s # # # =     ",
"  = # # # q d # z x c t t t t t t t t t t t t t t t t t t t y u i t t t t t t t t t t t t t t t t t t t c v z # d s # # # =     ",
"  = # # # q d # # b n m M t t t t t t t t t t t t t t t t t y u i t t t t t t t t t t t t t t t t t M m N b # # d s # # # =     ",
"  = # # # q d # # # B V C Z t t t t t t t t t t t t t t t t y u i t t t t t t t t t t t t t t t t A C S B # # # d s # # # =     ",
"  = # # # q d # # # # D F G H t t t t t t t t t t t t t t t y u i t t t t t t t t t t t t t t t H J g K # # # # d s # # # =     ",
"  = # # # q d # # # # # # L P t t t t t t t t t t t t t t t y u i t t t t t t t t t t t t t t t P I # # # # # # d s # # # =     ",
"  = # # # q d # # # # # # U Y t t t t t t t t t t t t t t t y u i t t t t t t t t t t t t t t t T U # # # # # # d s # # # =     ",
"  = # # # q d # # # # # # # R t t t t t t t t t t t t t t t y u i t t t t t t t t t t t t t t t R # # # # # # # d s # # # =     ",
"  = # # # q d # # # # # # E W t t t t t t t t t t t t t t t y u i t t t t t t t t t t t t t t t Q E # # # # # # d s # # # =     ",
"  = # # # q d # # # # # ! ~ t t t t t t t t t t t t t t t t y u i t t t t t t t t t t t t t t t t ~ ! # # # # # d s # # # =     ",
"  = # # # q d # # # # ! ^ / t t t t t t t t t t t t t t t t y u i t t t t t t t t t t t t t t t t / ^ ! # # # # d s # # # =     ",
"  = # # # q d # # # E ~ / t t t t t t t t t t t t t t t t t y u i t t t t t t t t t t t t t t t t t / ~ E # # # d s # # # =     ",
"  = # # # q d # # ( W t t t t t t t t t t t t t t t t t t t y u ) _ ` t t t t t t t t t t t t t t t t t Q ( # # d s # # # =     ",
"  = # # # q d # b ' t t t t t t t t t t t t t t t t t t t t ] [ { } 6 | t t t t t t t t t t t t t t t t t ' b # d s # # # =     ",
"  = # # # q d z  ...t t t t t t t t t t t t t t t t t t t t X.o.O.  +._ t t t t t t t t t t t t t t t t t @. .#.d s # # # =     ",
"  = # # # q d $.%.&.*.t t t t t t t t t t t t t t t t t t t t =.-.O.;.) :.t t t t t t t t t t t t t t t >.,.%.$.d s # # # =     ",
"  = # # # q d # # <.1.2.3.t t t t t t t t t t t t t t t t t t t =.4.5.6.7.t t t t t t t t t t t t t 3.2.8.<.# # d s # # # =     ",
"  = # # # q d # # # 9.0.q.w.t t t t t t t t t t t t t t t t t t t e.r.t.7.t t t t t t t t t t t t w.y.u.i.# # # d s # # # =     ",
"  = # # # q d # # # # p.a.s.d.t t t t t t t t t t t t t t t t t t e.r.t.7.t t t t t t t t t t t d.f.g.h.# # # # d s # # # =     ",
"  = # # # q d # # # # j.B k.l.t t t t t t t t t t t t t t t t t t e.r.t.7.t t t t t t t t t t t z.x.B j.# # # # d s # # # =     ",
"  = # # # q d # # # # # # c.v.t t t t t t t t t t t t t t t t t t e.r.t.7.t t t t t t t t t t t b.c.# # # # # # d s # # # =     ",
"  = # # # q d # # # # # # # R t t t t t t t t t t t t t t t t t t e.r.t.7.t t t t t t t t t t t R # # # # # # # d s # # # =     ",
"  = # # # q d # # # # # # n.m.t t t t t t t t t t t t t t t t t t e.r.t.7.t t t t t t t t t t t m.n.# # # # # # d s # # # =     ",
"  = # # # q d # # # # # # M.N.t t t t t t t t t t t t t t t t t t e.r.t.7.t t t t t t t t t t t N.M.# # # # # # d s # # # =     ",
"  = # # # q d # # # # n.M.B.t t t t t t t t t t t t t t t t t t Z c V.C.7.t t t t t t t t t t t t B.M.n.# # # # d s # # # =     ",
"  = # # # q d # # # Z.m.N.t t t t t t t t t t t t t t t t t t A.S.D.F.G.H.t t t t t t t t t t t t t J.m.Z.# # # d s # # # =     ",
"  = # # # q d # # K.L.t t t t t t t t t t t t t t t t t t t P.I.U.  ) 6 t t t t t t t t t t t t t t t t L.K.# # d s # # # =     ",
"  = # # # q d # # Y.T.t t t t t t t t t t t t t t t t t t t R.E.W.+.Q.!.t t t t t t t t t t t t t t t t T.Y.# # d s # # # =     ",
"  = # # # q d ~.^./.t t t t t t t t t t t t t t t t t t t t y u (.)._.t t t t t t t t t t t t t t t t t t `.'.f d s # # # =     ",
"  = # # # q d ].[.{.}.t t t t t t t t t t t t t t t t t t t y u i t t t t t t t t t t t t t t t t t t t |. X.Xj.d s # # # =     ",
"  = # # # q d # # XXoXOXX.t t t t t t t t t t t t t t t t t y u i t t t t t t t t t t t t t t t t t X.OX+X@X# # d s # # # =     ",
"  = # # # q d # # # #X$XP.%Xt t t t t t t t t t t t t t t t y u i t t t t t t t t t t t t t t t t %X=.$X#X# # # d s # # # =     ",
"  = # # # q d # # # &X*X=X-Xt t t t t t t t t t t t t t t t y u i t t t t t t t t t t t t t t t t ;X:X>X&X# # # d s # # # =     ",
"  = # # # q d # # # # ,X<X1X2Xt t t t t t t t t t t t t t t y u i t t t t t t t t t t t t t t t 2X3X<X,X# # # # d s # # # =     ",
"  = # # # q d # # # # # # 4X5Xt t t t t t t t t t t t t t t y u i t t t t t t t t t t t t t t t 6X7X# # # # # # d s # # # =     ",
"  = # # # q d # # # # # # # R t t t t t t t t t t t t t t t y u i t t t t t t t t t t t t t t t R # # # # # # # d s # # # =     ",
"  = # # # q d # # # # # # # R t t t t t t t t t t t t t t t y u i t t t t t t t t t t t t t t t R # # # # # # # d s # # # =     ",
"  = # # # q d # # # # # # R 8Xt t t t t t t t t t t t t t t y u i t t t t t t t t t t t t t t t 8XR # # # # # # d s # # # =     ",
"  = # # # q d # # # # ].9X8Xt t t t t t t t t t t t t t t t y u i t t t t t t t t t t t t t t t t 0X9X].# # # # d s # # # =     ",
"  = # # # q d # # # ].qXwXt t t t t t t t t t t t t t t t t y u i t t t t t t t t t t t t t t t t t wXeXrX# # # d s # # # =     ",
"  = # # # q d # # # tXT.yXt t t t t t t t t t t t t t t t t y u i t t t t t t t t t t t t t t t t t yXT.tX# # # d s # # # =     ",
"  = # # # q d # # R uXt t t t t t t t t t t t t t t t t t t y u i t t t t t t t t t t t t t t t t t t t uXR # # d s # # # =     ",
"  = # # # q d # iX^ t t t t t t t t t t t t t t t t t t t t y u i t t t t t t t t t t t t t t t t t t t t ^ iX# d s # # # =     ",
"  pXaXsX& q dXfXgXhXt t t t t t t t t t t t t t t t t t t t y u i t t t t t t t t t t t t t t t t t t t t t jX# d s # & kXlX    ",
"    pX< # q dXfXR t t t t t t t t t t t t t t t t t t t t t y u i zXt t t t t t t t t t t t t t t t t t t t t # d s # # o       ",
"      O # q dXfXR t t t t t t t t t t t t t t t t t t t t t y u i t t t t t t t t t t t t t t t t t t t t t t # d s # # 4       ",
"        xXq dXfXR t t t t t t t t t t t t t t t t t t t t t y u i t t t t t t t t t t t t t t t t t t t t t t # d s #           ",
"        xXq dXfXR t t t t t t t t t t t t t t t t t t t t t y u i t t t t t t t t t t t t t t t t t t t t t t # d s # cX        ",
"      . sXq dXfXR t t t t t t t t t t t t t t t t t t t t t y u i t t t t t t t t t t t t t t t t t t t t t t # d s # vX        "
};
