/* XPM */
static char *e352e18af20841ced6db496bab1a1c6236pdzX9D8C2B9EmY[] = {
/* columns rows colors chars-per-pixel */
"64 64 9 1 ",
"  c black",
". c #101010",
"X c gray19",
"o c #9F9F9F",
"O c gray75",
"+ c gray81",
"@ c #DFDFDF",
"# c #EFEFEF",
"$ c white",
/* pixels */
"                                                                ",
"                                                                ",
"                                                                ",
"                                                                ",
"                                                                ",
"                                                                ",
"                                                                ",
"                 ++                                             ",
"               +$#@                                             ",
"              .#                  +$$$$+                        ",
"              +X                 +#    #+                       ",
"             +#                  $      #$+                     ",
"            +#                   $        #+                    ",
"           +#                    #+        $                    ",
"          +#                      $        #.                   ",
"          $                       $        X+                   ",
"         +#                       $ O$$$$$$$$$$O                ",
"         $                        $        O#$                  ",
"         $ O$$$$$$O               #+         $                  ",
"        +#                         $         $                  ",
"        $                          $         $                  ",
"        #+                         $         @                  ",
"         $                         @                            ",
"         #$$$$$$$$$+                                            ",
"                   #$O                                          ",
"                                                                ",
"                                                                ",
"                                                                ",
"                                                                ",
"                                                                ",
"                                                                ",
"                                                                ",
"                                                                ",
"                                                                ",
"                                                                ",
"                                                                ",
"                                                                ",
"                                                                ",
"                                                                ",
"                                                                ",
"                                                                ",
"                                                                ",
"                                                                ",
"       .++                                        ++            ",
"       +X#+                                     .+##+           ",
"       $  #+                                   +#X  #+          ",
"      +#   #+                                 +#     #+         ",
"      $     #+                               +#       #$+       ",
"      @      #+                             +#          #O      ",
"              #+                  +$$+     +#                   ",
"               $                 +#  $  O+ $                    ",
"               #O+$$$$$+         $   @   #+@                    ",
"                 $   $ #+       +#        #.                    ",
"                +#   $  $       $         X+                    ",
"                $   +#  #+      #+        +#                    ",
"                #+O$#   +#       #$$$$$$$$#                     ",
"                 #$$$$$$#                                       ",
"                                o                               ",
"                          o     $                               ",
"                          $     $                               ",
"                          #+   +#                               ",
"                           #$$$#                                ",
"                                                                ",
"                                                                "
};
