/* XPM */
static char *fa126d80910d4a96bdf14072e5e8092blXaNYa0c5LkPvRVB[] = {
/* columns rows colors chars-per-pixel */
"64 64 142 2 ",
"   c black",
".  c #ED1C24",
"X  c #B97A57",
"o  c #F36B70",
"O  c #22B14C",
"+  c #3EBB63",
"@  c #42BD66",
"#  c #45BD68",
"$  c #4DC06F",
"%  c #4FC171",
"&  c #54C374",
"*  c #5CC57B",
"=  c #B5E61D",
"-  c #BCE933",
";  c #BFE93A",
":  c #FFF200",
">  c #C0EA3F",
",  c #FFF420",
"<  c #FFF42C",
"1  c #FFF53B",
"2  c #C2EA44",
"3  c #C4EB4A",
"4  c #C6EC52",
"5  c #C8EC57",
"6  c #C9ED5B",
"7  c #FFF645",
"8  c #FFF64A",
"9  c #FFF655",
"0  c #FFF75B",
"q  c #CCEE64",
"w  c #CFEF6B",
"e  c #D0EF6F",
"r  c #D1EF71",
"t  c #D2F075",
"y  c #D4F07C",
"u  c #FFF762",
"i  c #FFF76A",
"p  c #FFF86F",
"a  c #A349A4",
"s  c #B267B3",
"d  c #B56CB5",
"f  c #BA76BA",
"g  c #BD7CBD",
"h  c #65C982",
"j  c #69CA86",
"k  c #6ECC8A",
"l  c #74CE8E",
"z  c #78CF91",
"x  c #7CD195",
"c  c #F58185",
"v  c #F6898D",
"b  c #F68C90",
"n  c #F69296",
"m  c #F7A1A4",
"M  c #F9B3B6",
"N  c #84D49B",
"B  c #88D59F",
"V  c #8CD6A2",
"C  c #8FD8A4",
"Z  c #91D7A6",
"A  c #91D8A6",
"S  c #94D9A9",
"D  c #99DAAC",
"F  c #9EDCB0",
"G  c #A2DDB4",
"H  c #A7DFB8",
"J  c #ACE1BC",
"K  c #D6F183",
"L  c #D8F287",
"P  c #D9F28B",
"I  c #DBF294",
"U  c #DEF39B",
"Y  c #FFF980",
"T  c #FEF888",
"R  c #FEF993",
"E  c #DFF4A0",
"W  c #E1F4A3",
"Q  c #E4F5AC",
"!  c #FEFAAB",
"~  c #E6F6B4",
"^  c #E7F6B8",
"/  c #E9F7BC",
"(  c #E9F8BE",
")  c #FEFAB4",
"_  c #FEFBBB",
"`  c #C285C2",
"'  c #C58DC6",
"]  c #C994C9",
"[  c #CE9ECE",
"{  c #CFA0D0",
"}  c #D5AED6",
"|  c #D7B2D8",
" . c #D9B5DA",
".. c #B9E6C6",
"X. c #BDE7C9",
"o. c #B5E5C3",
"O. c #F9C1C4",
"+. c #FBD2D4",
"@. c #C3E9CE",
"#. c #C7EAD1",
"$. c #CCECD5",
"%. c #D3EFDB",
"&. c #D7F0DE",
"*. c #EBF7C2",
"=. c #ECF8C5",
"-. c #EDF8CB",
";. c #FEFBC3",
":. c #FEFBCA",
">. c #EFF9D1",
",. c #F1FAD5",
"<. c #FEFCD2",
"1. c #F3FADD",
"2. c #FEFCDC",
"3. c #E0C2E1",
"4. c #E5CCE5",
"5. c #EAD5EA",
"6. c #ECDAEC",
"7. c #DFF3E5",
"8. c #E1F4E6",
"9. c #E4F5E9",
"0. c #EAF7EE",
"q. c #ECF8EF",
"w. c #F6FBE4",
"e. c #FEFDE3",
"r. c #F7FCE9",
"t. c #F9FCED",
"y. c #F2E7F3",
"u. c #F5ECF5",
"i. c #EDF8F0",
"p. c #F4FAF6",
"a. c #FEFDF5",
"s. c #FBFDF4",
"d. c #F9F5F9",
"f. c #FCFDF8",
"g. c #FDFEFB",
"h. c #FEFEF9",
"j. c #FEFEFD",
"k. c #FEFEFC",
"l. c #FEFEFE",
"z. c white",
"x. c #FDFEFC",
"c. c #FEFEFD",
/* pixels */
"a a a a                                                         = = = = = = = = = = =                                 a a a a a ",
"a a a a                                               = = = = = = = = = = = = = = = = = = = = =                       a a a a a ",
"a a a a                                         = = = = = = = = = = = = = = = = = = = = = = = = = = =                 a a a a a ",
"a a a a . . . . . . . . . . . . . . . . . . = = = = = = = = = = = = = = = = = = = = = = = = = = = = = = = . . . . . a a a a a a ",
"a a a a . . . . . . . . . . . . . . . . = = = = = = = = = = = = = = = = = = = = = = = = = = = = = = = = = = = . . . a a a a a a ",
"a a a a . . . . . . . . . . . . . . = = = = = = = = = = = = = = c n o c +.M v n b m O.= = = = = = = = = = = = = = . a a a a a a ",
"a a a a : : : : : : : : : : : : : = = = = = = = = = = = , 1 7 8 :.<.9 u :.! p _ 2._ a.<.e.t.:.= = = = = = = = = = = a a a a a a ",
"a a a a : : : : : : : : : : : : = = = = = = = = = z.z.2.0 u :.;.z.2.Y 0 p p 8 0 ) :.h.z.h._ R h.z.z.= = = = = = = = a a a a a a ",
"a a a a : : : : : : : : : : : = = = = = = = = :.2.a.z.z.! T h.z.z.h.e.) 9 < 8 0 R e.l.f.2.p i :.<.a.e.R = = = = = = a a a a a a ",
"a a a a O O + V + O O O O O = = = = = = = 9.9.S @.q.7.i.0.@.9.i.0.p.f.7.z @ h D #.f.0.8.Z @ & h z $.%.j k $.= = = = a a a a a a ",
"a a a a O O O O O O O O O = = = = = = = G J @.D J X.B H $.#.Z H @.#.$.@.z @ * S X...N G B & h # @ N F j V &.o.= = = a a a a a a ",
"a a a a O O O O O O O O O = = = = = = H z N J S V N j B Z V l V V Z D D N * * x V * # h G J G l @ * k N z V H V = = a a a a a a ",
"a a a a O O O O O O O O = = = = = = x B x l B V S A z h * * l N z N B x k h h h * + # B D Z l * & l l x l h z Z h = a a a a a a ",
"a a a a O O O O O O O O = = = = = * * % & j V H ..H J A j z Z S D N x V V V V B h & l V D z j k V V V V V V N Z A B a a a a a a ",
"a a a a z.z.z.z.z.z.z.= X X X X X X X z.z.z.z.^ / w.w.w.-./ / -.-.E I ~ x.x.x.l.z.z.z.z.z.l.l.z.l.l.z.z.l.l.f.z.z.z.a a a a a a ",
"a a a a z.z.z.z.z.X X X X X X X X X X X X X s.*.>.z.z.h.s.s.s.s.,.,.w.w.s.s.s.^ 3 z.z.z.z.z.l.q ^ s.s.s.t.-.z.z.z.z.a a a a a a ",
"a a a a z.z.z.X X X X X X X X X X X X X X X X X f.z.l.l.f.z.l.r.U ,.z.z.z.h.w.U 4 2 w K >.f.s.r U w.s.x.1.E -.-.Q x.a a a a a a ",
"a a a a z.z.X X X X X X X X X X X X X X X X X X X z.s.t.f.z.z.~ w ~ -.r.f.>.t w K w 6 P >.>.-.U q K *.s./ I / I K w.a a a a a a ",
"a a a a z.X X X X X X X X X X X X X X X X X X X X X >./ w.t.w.y 2 q 4 U s.W 2 U >.I I ,.^ K E 1.U 2 E t./ ^ ~ q w -.a a a a a a ",
"a a a a X X X X X X X X X K U K E >.X X X X X X X X X / ,.>.>.1.U ^ >.-.U P 6 Q >.U P U w r E 1.^ 4 P E / ~ *.P w K a a a a a a ",
"a a a a X X X X X X l.t.f.r.1.P ; W Q / w.X X X X X X X ,.t.,.f.t.s.s.>.t.t.s.s.f.U w q 6 t P U r y 5 q l.l.U E K 5 a a a a a a ",
"a a a a X X X X X l.f.s.s.l.l.1.r / r.s.l.l.X X X X X X X ,.s.l.l.l.1./ f.l.l.l.f.1.Q P w w t t 5 w 2 q I U l.z.q r a a a a a a ",
"a a a a X X X X s.s.t.-.1.f.l.l.^ I f.l.l.l.l.X X X X X X =.f.l.l.s.s.t.w.w.s.s.>.^ ^ Q Q l.P P K q 2 w I U r x.x.= a a a a a a ",
"a a a a X X X -.>.w.w.s.w.t.1.r.t.=.w.l.l.l.l.l.X X X X X X l.l.f.r.s.s.s.r.f.s.1.,.t.,.,.r.l.z.Q 4 2 t Q -.E U = = a a a a a a ",
"a a a a X X w.Q U Q r.w.,.^ L Q >.*.P Q l.f.f.l.t.X X X X X l.l.l.s.l.l.a a a a a a a a a s.l.l.l.3 4 t Q w.t.= = = a a a a a a ",
"a a a a X X ~ E -.~ >.>.-.*.q K P P w P I l.f.w.,.X X X X X X l.l.a a a a a a a a a a a a a a a l.l.l.w K -.= = = = a a a a a a ",
"a a a a X w y z.~ Q ~ / *.x.l.q 6 5 r K r y K s.*./ X X X X X a a a a a a a a a a a a a a a a a a a l.z.= = = = = = a a a a a a ",
"a a a a X 6 z.t r L ~ >.w.f.s.x.q t P I I K y P L 1.X X X X X a a a a a a a a a a a a a a a a a a a a a = = = = = = a a a a a a ",
"a a a a X P z.q ; y w.s.x.x.l.l.l./ / -.*.E I ~ / *.X X X X X X a a a a a a a a a a a a a a a a a a a a a a = = = = a a a a a a ",
"a a a a ~ z.t.~ q Q f.x.f.z.l.l.l.z.s.f.,.,.w.w.s.s.d.X X X X X a a a a a w.l.f.s.f.s.w a a a a a a a a a a a = = = a a a a a a ",
"a a a a q z.t.t.-.w.z.z.x.l.l.l.l.l.l.l.U 1.l.l.l.l.y.X X X X X a a t.,.P ; 4 5 q >.,.w r >.~ a a a a a a a a a = = a a a a a a ",
"a a a a w z.r.s.f.f.t.x.l.l.l.l.l.z.l.l.l.l.-.r.f.5.] X X X X X s.f.l.l.1.r r >.*.l.w.I w y y 6 w a a a a a a a a = a a a a a a ",
"a a a a P z.s.z.z.1.E s.t.w.s.h.l.l.l.l.x.z.z.} d. .s X X X X X -.1.s.l.l.~ I l.l.l.f.r.^ w 2 6 e U w.a a a a a a a a a a a a a ",
"a a a X L z.t.s.,.P U s.w.W Q 1.z.l.l.l.z.z.z.g | { g X X X X X I *.t.w.t.r.*.w.t.r.s.f.w.t > q z.h.z.f.a a a a a a a a a a a a ",
"a a a X K P =.( U y ~ 1.t.>.=.w.l.l.l.z.x.z.g d ` g ] X X X X X I Q ^ K Q >.*.P Q *.*.-.f.>.W s.f.l.l.w.s.a a a a a a a a a a a ",
"a a a X q 4 q W W U Q =.s.s.f.w.>.f.l.l.l.x.] g f s ` X X X X X / l.l.l.f.l.l.~ -.s.s.l.s.>./ 1.r.t.t.s.1.U a a a a a a a a a a ",
"a a a X X ; 4 P U Q 1.t.h.z.r.Q Q 1.*.w.z.4.| | [ g X X X X X X l.l.l.l.l.z.l.1.,.l.l.z.z.s.t.>.*.w.>.w.y I a a a a a a a a a a ",
"a a a X X ; t U *.W t.h.h.t.1./ Q ~ U r.f.4.y.y.y.5.X X X X X -.l.f.s.s.l.s.s.s.t.f.l.f.z.z.f.t.w.s.s.r P U r a a a a a a a a a ",
"a a a X X 4 ~ s.t 5 r.a.s.r.s.s.-.E -.z.l.5.x.x.z.d.X X X X X a.x.x.l.l.z.s.t.s.s.s.f.f.x.s.f.l.h.f.4 K Q *.E a a a a a a a a a ",
"a a a X X X f.h.I e t =.*.^ ,.s.t.1.t.z.d.x.x.z.z.X X X X X X z.l.l.l.x.z.z.f.h.f.s.l.l.l.f.l.z.^ 3 3 y Q w.r.a a a a a a a a a ",
"a a a X X X z.f.s.-.r 3 4 ~ >.z.z.x.f.s.x.z.l.d.u.X X X X X 1.z.l.l.l.l.l.l.l.l.l.l.l.l.l.l.f.w.U 4 3 w K -.f.z.a a a a a a a a ",
"a a a X X X X s.s.t.I ; 4 P / z.z.z.z.z.5.} 3.5.X X X X X X ,.-.f.l.l.l.f.l.z.l.l.l.l.l.t.f.>.t w K w 5 P >.l.l.a a a a a a a a ",
"a a a X X X X X -.-.I 2 4 P ~ >.=.t z.z. .' ' X X X X X X w.P W w.s.l.l.x.x.l.z.l.2 q 4 U s.W 2 I >.I I w.x.z.l.a a a a a a a a ",
"a a a X X X X X X U I q w t E ^ U q w q ' { X X X X X X X ~ ~ =.l.l.l.l.K Q U I w 6 6 - 6 E P 6 Q >.U E l.z.l.l.a a a a a a a a ",
"a a a X X X X X X X r w y y Q E L r 6 ; f X X X X X X X K 3 6 q r y w 4 5 w r w P Q E 6 3 w 6 t y U >.P z.z.z.l.a a a a a a a a ",
"a a a z.X X X X X X X X X >.>.I I I q X X X X X X X X q r q w 2 r P t q 5 4 q q K I U y 5 4 2 l.1.~ ~ ~ z.z.z.l.a a a a a a a a ",
"a a a z.z.X X X X X X X X X X X X X X X X X X X X X ; 5 q e y y W I w q 4 2 ; 4 P ~ / E U E ^ f.-.E >.z.z.l.z.a a a a a a a a a ",
"a a a z.z.z.X X X X X X X X X X X X X X X X X X X a ; t U r w >.>.P I I 6 - - r ,./ l.l.l.w.,.w.1.,.r.z.x.z.x.a a a a a a a a a ",
"a a a z.z.z.z.X X X X X X X X X X X X X X X X X a a 4 ^ p.r 6 *.-.P ~ ,.z.x.z.x.l.l.l.l.l.l.f.s.s.f.z.l.l.l.l.a a a a a a a a a ",
"a a a z.z.z.z.= = X X X X X X X X X X X X X a a a a a s.f.I e z.z.z.z.l.x.z.z.z.l.l.l.l.l.l.l.l.x.z.l.l.l.l.a a a a a a a a a a ",
"a a a z.z.z.z.z.= = = = X X X X X X X *.>.P a a a a a z.x.t.>.r z.l.l.z.l.l.z.x.l.f.l.l.f.s.x.l.x.l.z.l.z.t.a a a a a a a a a a ",
"a a a z.z.z.z.z.= = = = = = z.s.f.U r r K q a a a a a a s.f.t.I 2 4 P l.l.l.z.t K w.r.r.s.f.x.x.l.l.x.q 5 a a a a a a a a a a a ",
"a a a z.z.z.z.z.z.= = = = = = z.f.s.>.r 3 4 = a a a a a a -.-.I 2 4 K ~ -.=.*.y I ,.h.1.w.x.x.E I r 6 q a a a a a a a a a a a a ",
"a a a z.z.z.z.z.z.= = = = = = = = l.r.I = = = a a a a a a a U P q w y E ~ U w w q r P L P I U P q L U a a a a a a a a a a a a a ",
"a a a z.z.z.z.z.z.z.= = = = = = = = = = = = = = a a a a a a a a w y K Q W L r 5 ; 4 r U ~ / ~ ~ U a a a a a a a a a a a a a a a ",
"a a a z.z.z.z.z.z.z.z.= = = = = = = = = = = = X X X X X X X X X X X X X X X X X X X X X X X X X X X X X X X X X z.a a a a a a a ",
"a a a z.z.z.z.z.z.z.z.z.= X X X X X X X X X X X X X X X X X X X X X X X X X X X X X X X X X X X X X X X X X X X X a a a a a a a ",
"a a a z.z.z.z.z.X X X X X X X X X X X X X X X X X X X X X X X X X X X X X X X X X X X X X X X X X X X X X X X X X a a a a a a a ",
"a a a a a a a a a a a a a a a a a a a a a a a a a a a a a a a a a a a a a a a a a a a a a a a a a a a a a a a a a a a a a a a a ",
"a a a a a a a a a a a a a a a a a a a a a a a a a a a a a a a a a a a a a a a a a a a a a a a a a a a a a a a a a a a a a a a a ",
"a a a a a a a a a a a a a a a a a a a a a a a a a a a a a a a a a a a a a a a a a a a a a a a a a a a a a a a a a a a a a a a a ",
"a a a a a a a a a a a a a a a a a a a a a a a a a a a a a a a a a a a a a a a a a a a a a a a a a a a a a a a a a a a a a a a a ",
"a a a a a a a a a a a a a a a a a a a a a a a a a a a a a a a a a a a a a a a a a a a a a a a a a a a a a a a a a a a a a a a a ",
"a a a a a a a a a a a a a a a a a a a a a a a a a a a a a a a a a a a a a a a a a a a a a a a a a a a a a a a a a a a a a a a a "
};
