/* XPM */
static char *_0249f0a63244065a9158ede7b20beabguqTLrxSuMw4T9po[] = {
/* columns rows colors chars-per-pixel */
"64 64 9 1 ",
"  c black",
". c #101010",
"X c gray19",
"o c #9F9F9F",
"O c gray75",
"+ c gray81",
"@ c #DFDFDF",
"# c #EFEFEF",
"$ c white",
/* pixels */
"                                                                ",
"                                                                ",
"                                                                ",
"                                                                ",
"                                                                ",
"                     o              O$$+.                       ",
"                     $             +$+ X#+                      ",
"             o       #+           +# $   #+                     ",
"             $        $          +#  $    $                     ",
"             $+       $          $   $    $                     ",
"             $$.      $         +#   $    $                     ",
"             $$+      $         $   O#    $                     ",
"             $$#+     $         $         $                     ",
"             #$ #+    $         $        .#                     ",
"              $  #.   $         #+      .OX                     ",
"              $  X#+  $          #$$$$$$#X                      ",
"              $    #+ $                                         ",
"              $     #$#                                         ",
"              $                                                 ",
"              $                                                 ",
"              $                                                 ",
"              $                                                 ",
"              @                                                 ",
"                                                                ",
"                                                                ",
"                                                                ",
"                                                                ",
"                                                                ",
"                                                                ",
"                             o                                  ",
"                             $                                  ",
"                             $          O+                      ",
"                             $           $                      ",
"                             #+          $                      ",
"                              $          $                      ",
"                              $          #+                     ",
"                              @           $                     ",
"                                          $                     ",
"                                          $                     ",
"                                          @                     ",
"                                                                ",
"                                                                ",
"                                                                ",
"                                                  o             ",
"                                                  $             ",
"                                                 +#             ",
"                        +O                      +#              ",
"                       +#                      .#               ",
"                       $                      .OX               ",
"                       #+                    +#X                ",
"                        #$+               .+$#                  ",
"                          #$$+          +$#X                    ",
"                             #$$$$$$$$$$#                       ",
"                                                                ",
"                                                                ",
"                                                                ",
"                                                                ",
"                                                                ",
"                                                                ",
"                                                                ",
"                                                                ",
"                                                                ",
"                                                                ",
"                                                                "
};
