/* XPM */
static char *ec4f2aaba9124216aad2c4d71bf52324LiTHrSOSjIkMska7[] = {
/* columns rows colors chars-per-pixel */
"64 64 9 1 ",
"  c black",
". c #101010",
"X c gray19",
"o c #9F9F9F",
"O c gray75",
"+ c gray81",
"@ c #DFDFDF",
"# c #EFEFEF",
"$ c white",
/* pixels */
"                                                                ",
"                                                                ",
"                                                                ",
"                                                                ",
"                                                                ",
"                                                                ",
"                                                                ",
"                                           +$+                  ",
"                          o               +# @                  ",
"                          $              +#                     ",
"                          $             +#                      ",
"               o          $             $                       ",
"               $          $             $$$$$$O                 ",
"               $    o     $             $                       ",
"               #+   $    +#             #+                      ",
"                $   $    $               #$$$$$O                ",
"                $  +$+   $                                      ",
"                #+ $ #+ +#                                      ",
"                 #$#  #$#                                       ",
"                                                                ",
"                                                                ",
"                                                                ",
"                                                                ",
"                                                                ",
"                                                                ",
"                                                                ",
"                                                                ",
"                                                                ",
"                                                                ",
"                                                                ",
"                                                                ",
"                  o                    o                        ",
"                  #+                   $     +O                 ",
"             o     $      +$+     o    $     $                  ",
"             $     $      $O#     $    $     $                  ",
"             $     #+     $       $    $    .#                  ",
"             $      $    +#       $+$+ $    +X                  ",
"             $      $    $        $$ #+$    $O$$$$O             ",
"             $+$$+  $    $$$O     $$  $$    #+                  ",
"             $#  #+ $    $        #$  #$     #+                 ",
"             $    $ $    #$$O      @   @      #$$$O             ",
"             $    #+$                                           ",
"             $     #$                                           ",
"             $      @                                           ",
"             @                                                  ",
"                                                                ",
"                                                                ",
"                                                                ",
"                                                                ",
"                                                                ",
"                                                                ",
"                                                                ",
"                                                                ",
"                                                                ",
"                                                                ",
"                                                                ",
"                                                                ",
"                                                                ",
"                                                                ",
"                                                                ",
"                                                                ",
"                                                                ",
"                                                                ",
"                                                                "
};
